<svg version="1.1" id="Layer_1" xmlns="http://www.w3.org/2000/svg" xmlns:xlink="http://www.w3.org/1999/xlink" x="0px" y="0px"
	 width="100%" viewBox="0 0 983 980" enable-background="new 0 0 983 980" xml:space="preserve">
<path fill="#FFFFFF" opacity="1.000000" stroke="none" 
	d="
M632.000000,981.000000 
	C421.333344,981.000000 211.166672,981.000000 1.000000,981.000000 
	C1.000000,654.333313 1.000000,327.666656 1.000000,1.000000 
	C328.666656,1.000000 656.333313,1.000000 984.000000,1.000000 
	C984.000000,327.666656 984.000000,654.333313 984.000000,981.000000 
	C866.833313,981.000000 749.666687,981.000000 632.000000,981.000000 
M713.083801,757.098938 
	C713.097412,755.418640 713.111084,753.738342 713.734436,751.633728 
	C714.102112,750.115051 715.022888,748.486389 714.746399,747.095825 
	C713.142334,739.028198 710.040039,731.704895 703.252441,726.479858 
	C701.804504,725.365112 700.408569,724.182861 698.907776,722.312805 
	C696.931335,719.210999 694.954956,716.109131 692.986450,712.233337 
	C692.465881,711.154175 692.204651,709.790466 691.382935,709.041809 
	C685.825378,703.978271 681.898804,697.990784 680.298401,690.453552 
	C677.951416,689.919495 675.553101,689.373779 673.066528,688.040771 
	C672.829834,684.988342 672.593140,681.935852 672.356445,678.883423 
	C672.133545,679.150146 671.910645,679.416870 671.687744,679.683594 
	C666.590149,674.291199 661.492493,668.898743 656.240540,663.343018 
	C656.616089,661.234619 657.043884,658.832581 657.551819,655.980835 
	C659.993103,655.980835 662.285339,655.980835 665.417969,655.980835 
	C664.352234,654.682190 664.000549,654.354004 663.770935,653.955505 
	C663.031372,652.671875 662.336853,651.362366 661.624939,650.062744 
	C662.876831,650.145508 664.321777,650.657166 665.331909,650.202637 
	C666.599365,649.632385 667.868713,648.445984 668.479492,647.202515 
	C669.157227,645.822815 668.747925,643.902161 669.444397,642.540649 
	C670.222656,641.019409 672.292419,640.050598 672.791992,638.513611 
	C675.184448,631.152649 678.066101,624.527649 687.586914,624.515808 
	C687.730042,623.604004 687.742981,622.773865 687.996460,622.025146 
	C689.916748,616.353149 686.599976,609.188477 693.085022,604.737854 
	C694.287842,603.912354 694.666199,601.898254 695.449402,600.445862 
	C697.076599,597.428406 698.720154,594.419739 700.356995,591.407471 
	C700.819580,591.634094 701.282166,591.860718 701.744751,592.087402 
	C701.555725,590.474976 700.926147,588.760864 701.269836,587.271362 
	C701.973389,584.222900 703.199524,581.294983 704.483643,577.512817 
	C704.845093,577.323730 706.378052,576.521667 707.910950,575.719666 
	C707.461914,575.527710 707.012817,575.335754 706.563782,575.143860 
	C706.733826,572.445557 705.860291,568.528198 707.291382,567.303040 
	C710.263062,564.759033 711.442993,562.673889 710.126526,558.936646 
	C709.695007,557.711487 710.459106,556.052368 710.718506,554.599182 
	C711.291626,551.388672 712.039490,548.201843 712.451782,544.971558 
	C713.557312,536.310303 714.609741,527.640442 715.521484,518.956909 
	C716.432861,510.276428 717.188904,501.578613 717.884521,492.878082 
	C717.951843,492.036469 717.027222,491.152039 716.711487,490.236298 
	C715.814392,487.634552 714.165710,484.968719 714.282776,482.394928 
	C714.879211,469.279999 709.951355,457.012268 708.842285,444.185120 
	C708.775146,443.408264 708.133484,442.696503 707.857422,441.919525 
	C706.886475,439.185883 705.269043,436.466064 705.151855,433.688080 
	C704.873596,427.090607 701.686890,421.920044 698.263550,416.715088 
	C696.849548,414.565216 695.384705,412.322662 699.248535,410.850800 
	C699.999023,410.564911 700.965698,408.950623 700.745117,408.345367 
	C699.870605,405.945801 698.564575,403.703491 697.418457,401.402893 
	C696.672974,402.252625 695.435730,403.030182 695.297974,403.969055 
	C695.094849,405.353821 695.674622,406.853455 695.921021,408.304138 
	C695.406799,408.428467 694.892578,408.552765 694.378418,408.677094 
	C692.095520,402.131317 689.812561,395.585541 687.384399,388.623199 
	C677.936890,386.724762 681.727478,376.678223 678.258911,370.498932 
	C674.064575,373.718506 672.241089,369.922302 670.071045,367.546539 
	C665.724976,362.788269 661.453125,357.955688 657.341003,352.996002 
	C656.579590,352.077637 656.478271,350.415527 656.487244,349.099487 
	C656.501892,346.944458 656.813782,345.120605 653.495483,345.536530 
	C652.138672,345.706573 649.416382,344.585693 649.335022,343.833527 
	C648.577637,336.833923 641.502136,336.712128 637.792908,333.004333 
	C633.410706,328.623657 627.511597,325.723541 623.300354,321.218567 
	C618.745605,316.346161 610.090942,316.463440 608.315552,308.516449 
	C608.293579,308.418152 608.039917,308.371613 607.818237,308.263916 
	C606.478516,308.433990 605.068237,308.613037 603.448303,308.818665 
	C602.612732,304.715820 599.987976,303.718719 596.364319,303.959595 
	C594.244202,304.100525 591.783875,304.258575 592.410950,300.570984 
	C592.506287,300.010681 590.141113,298.618988 588.753845,298.292419 
	C583.279907,297.004181 576.701294,297.458588 572.499390,294.486053 
	C567.576050,291.003235 562.156006,291.128357 557.158386,289.148712 
	C552.357544,287.247070 547.012695,286.757660 541.962585,285.434937 
	C537.548279,284.278748 533.607849,281.129395 528.473328,283.458984 
	C526.917297,284.164948 524.460815,282.886261 522.416748,282.516602 
	C522.499756,282.227936 522.582764,281.939240 522.665710,281.650574 
	C524.697571,280.996918 526.729431,280.343262 528.761292,279.689606 
	C528.603210,279.103119 528.445129,278.516632 528.287048,277.930145 
	C524.570496,278.292114 520.815857,279.156494 517.147949,278.877808 
	C513.315002,278.586609 508.683624,278.535767 508.695770,272.673584 
	C510.104279,272.440216 511.510162,272.029480 512.921753,272.008850 
	C516.289856,271.959534 518.015747,270.410583 518.746521,267.011353 
	C520.493652,267.435181 522.240845,267.858978 523.987976,268.282806 
	C524.256714,266.759521 524.525391,265.236206 524.609497,264.759430 
	C526.146912,262.624237 527.159485,261.231598 528.157104,259.828339 
	C529.000244,258.642365 529.845703,257.457245 530.654907,256.248199 
	C531.788696,254.554260 533.438904,252.973907 533.899536,251.106049 
	C535.166687,245.968094 536.103699,240.730545 536.850891,235.486740 
	C537.996033,227.450592 536.774963,219.394653 532.880676,212.560104 
	C530.256592,207.954742 527.690063,201.977402 520.997559,201.000336 
	C520.997559,201.000336 520.963989,201.029099 520.983582,200.290039 
	C519.172791,195.439926 510.726410,189.020950 505.652069,189.099167 
	C502.739899,189.144058 499.840363,190.008286 496.105316,190.638214 
	C494.444702,190.514725 492.784088,190.391251 491.039459,189.537338 
	C490.646942,184.863480 490.646942,184.863480 486.526215,185.806152 
	C486.658752,187.416855 486.791290,189.027557 486.282715,190.823639 
	C485.839905,190.831558 485.397095,190.839462 484.425659,190.334137 
	C483.010742,189.964401 481.608368,189.534851 480.178650,189.235840 
	C475.312927,188.218185 473.466675,189.708084 472.685120,195.155441 
	C472.685120,195.155441 472.322205,195.206757 471.558411,195.015778 
	C470.104492,194.354706 468.650574,193.693619 467.268494,193.065216 
	C464.058990,197.019058 460.900238,200.616776 458.066833,204.454697 
	C448.730347,217.101303 445.321655,230.608170 450.424133,246.220261 
	C454.781708,259.553192 462.488922,268.846558 476.101685,273.735657 
	C477.817108,275.287048 479.532562,276.838409 481.944885,279.020020 
	C477.594757,279.020020 473.847504,279.001099 470.100647,279.030212 
	C468.777130,279.040466 466.946869,278.634369 466.215393,279.330139 
	C462.032715,283.309021 456.693359,282.165680 451.809906,283.025482 
	C447.784302,283.734283 443.021942,283.486481 440.000092,285.643494 
	C437.600006,287.356750 435.679382,287.920868 433.107574,288.036987 
	C431.302002,288.118500 429.399750,288.115265 427.725769,288.689392 
	C421.417236,290.853180 415.145294,293.137878 408.935364,295.570465 
	C403.714417,297.615631 398.621185,299.984528 393.427216,302.101624 
	C390.681366,303.220795 387.734192,303.885803 385.073730,305.163544 
	C382.431274,306.432617 380.034363,308.212982 376.676514,310.299255 
	C376.291138,310.768250 374.501953,313.399231 374.204193,313.240082 
	C369.611298,310.785065 366.258148,315.166656 362.233002,314.814606 
	C361.627411,324.174072 360.184052,325.376587 353.889801,321.732239 
	C353.807251,321.682068 353.724701,321.631897 353.642151,321.581757 
	C353.763397,321.719666 353.884644,321.857574 353.924591,322.765259 
	C351.380035,331.030579 346.062195,336.258209 338.577179,337.620697 
	C336.666382,340.523285 335.322144,342.822235 333.713654,344.918457 
	C332.636017,346.322845 331.027649,347.316010 329.925201,348.706055 
	C324.869080,355.081146 319.991272,361.600220 314.819092,367.877808 
	C314.069275,368.787872 312.071442,368.669647 310.371307,369.097748 
	C310.371307,366.730255 310.371307,365.152771 310.371307,363.575287 
	C309.775574,363.492554 309.179840,363.409821 308.584106,363.327118 
	C307.034546,370.007660 305.541687,376.702454 303.871307,383.352692 
	C303.633972,384.297455 302.574249,385.063843 301.826355,385.847076 
	C299.009888,388.796783 295.468689,391.316284 293.486053,394.741852 
	C290.107483,400.579407 288.316803,407.131653 287.943756,413.999390 
	C287.878815,415.194611 286.762726,416.304138 286.273865,417.510620 
	C285.127594,420.339478 284.007477,423.182037 282.991119,426.059418 
	C282.197540,428.305939 281.575989,430.613220 280.524048,434.049835 
	C278.988464,431.048767 278.255219,429.615814 277.522003,428.182861 
	C276.965698,428.374573 276.409393,428.566315 275.853058,428.758026 
	C276.405701,431.174744 277.284454,433.573334 277.419830,436.013184 
	C277.556976,438.485596 277.456268,442.951904 276.601013,443.169525 
	C271.895660,444.366577 273.316925,447.731567 272.987854,450.654419 
	C272.050079,458.983856 274.025452,467.749176 269.191864,475.536041 
	C268.594208,476.498840 268.607483,478.421478 269.174072,479.428986 
	C272.132721,484.689880 270.175232,490.234253 269.695953,495.386505 
	C268.547668,507.730286 268.730377,519.829285 271.389984,531.960022 
	C272.301392,536.117126 272.158875,540.502625 272.537842,544.780151 
	C272.790222,547.628723 273.303619,550.467590 273.354706,553.317017 
	C273.413330,556.588257 273.090424,559.866394 272.910126,563.624207 
	C274.516571,563.115112 275.489166,562.806885 276.085785,562.617798 
	C282.451477,573.094727 280.996887,585.915771 287.888885,596.033447 
	C290.445312,599.786377 291.552521,604.494995 293.749573,608.534424 
	C295.471222,611.699768 297.967743,614.434814 299.878571,617.510986 
	C300.514313,618.534546 300.401154,620.023193 300.600189,621.131409 
	C299.361725,622.065796 298.282654,622.880005 296.227081,624.430908 
	C298.380646,624.550964 299.562317,624.993774 300.093811,624.587036 
	C304.450775,621.252319 304.548431,623.794861 305.195496,627.536926 
	C305.699341,630.450745 307.774261,633.135559 309.365784,635.793518 
	C309.862457,636.622986 311.254913,636.873901 311.899323,637.664917 
	C313.790039,639.986023 315.529846,642.431641 317.293030,644.854553 
	C319.079254,647.309021 320.822754,649.794495 323.175385,653.094543 
	C328.004913,652.925476 329.218201,654.470886 329.473328,663.587158 
	C339.157135,663.278503 343.559387,670.391785 348.276672,677.157227 
	C348.859161,677.992615 350.002869,678.704834 351.007050,678.925415 
	C353.550537,679.484131 354.345673,680.683411 353.496582,683.210144 
	C353.155792,684.224365 353.440460,685.448669 353.440460,686.606323 
	C355.911743,685.353882 357.789001,684.402527 359.666290,683.451233 
	C360.090851,685.045471 360.515411,686.639709 360.892639,688.056213 
	C363.324463,688.441223 365.984222,688.862244 368.594452,689.275452 
	C368.937012,691.356628 369.199646,692.952148 369.474670,694.622986 
	C371.683319,694.476624 373.658386,694.345703 376.342957,694.167847 
	C375.406189,696.511353 374.826813,697.960876 373.706024,700.764832 
	C376.077332,700.346863 378.063110,700.599731 378.899109,699.737610 
	C381.518799,697.036377 383.169281,698.171387 385.637207,700.081421 
	C388.396698,702.217102 391.778503,703.585205 394.978088,705.100342 
	C396.600098,705.868408 398.884460,705.734741 400.060913,706.856567 
	C404.082245,710.691101 409.261566,711.479370 414.170197,713.099609 
	C415.233490,713.450562 416.721466,714.586548 416.804474,715.474121 
	C417.148773,719.156250 418.465668,719.687805 421.666656,718.012634 
	C422.886627,717.374146 424.809814,717.770203 426.335480,718.077515 
	C433.922913,719.605408 441.484650,721.260925 449.546082,722.975891 
	C449.831451,723.839172 450.322205,725.323669 450.910767,727.104126 
	C452.444672,726.744690 453.702911,726.209656 454.964478,726.201660 
	C458.085358,726.181885 461.251282,726.129333 464.315399,726.616577 
	C466.665863,726.990173 468.867340,728.795898 471.171906,728.873657 
	C479.572906,729.157410 487.989410,728.986084 496.400055,728.980957 
	C500.812500,728.978271 505.225067,728.943359 509.637390,728.960449 
	C522.559875,729.010376 534.301331,724.073914 546.429443,720.592773 
	C551.390930,719.168762 556.884888,719.600037 562.911499,719.126404 
	C564.290955,716.170410 567.249023,713.820190 572.455139,713.882202 
	C584.118652,714.021240 584.961853,713.322815 585.878906,705.876099 
	C589.721558,706.853760 593.892395,708.404236 596.735779,703.404114 
	C596.285095,705.646606 595.585144,707.407715 594.405701,708.746338 
	C592.356262,711.072449 592.234314,712.555481 595.690552,712.971252 
	C599.055664,713.376160 599.483704,715.060120 598.135681,717.812744 
	C597.743347,718.613770 597.645874,719.559082 597.378357,720.570068 
	C607.599670,721.391724 606.659485,730.392090 609.835205,736.408447 
	C610.866089,735.992554 611.989502,735.539368 613.393372,734.973022 
	C613.888794,737.243286 613.667358,739.769958 614.818237,740.903687 
	C620.473206,746.474792 625.642334,752.288147 630.248962,758.854492 
	C633.171448,763.020203 633.884094,769.218750 639.935608,771.294189 
	C640.889160,771.621155 640.821228,775.067993 641.126831,777.087158 
	C641.293884,778.191162 641.254028,779.326355 641.305847,780.412292 
	C642.701355,780.491699 644.143188,780.128845 644.871521,780.690857 
	C648.336426,783.364136 650.658997,787.738647 655.909546,787.708496 
	C656.228577,787.706665 656.987732,789.194641 656.810730,789.760742 
	C655.282776,794.647827 658.129272,795.072693 661.813843,795.072815 
	C663.064575,795.072815 664.363647,795.732727 665.557861,796.273865 
	C671.383179,798.913696 671.469849,798.901489 674.150757,792.790588 
	C677.094299,793.449158 680.132629,794.350769 683.235168,794.740479 
	C685.116211,794.976746 687.565552,795.083374 688.949463,794.103821 
	C694.316345,790.304932 699.306946,785.979187 704.561096,782.013062 
	C705.727661,781.132568 707.440430,780.386658 708.826660,780.499695 
	C712.578857,780.805725 712.607300,778.320496 711.455933,776.484741 
	C709.365601,773.151489 711.225769,770.908264 712.575073,768.312805 
	C712.920227,767.648865 712.865112,766.776917 712.999756,765.167786 
	C713.016174,763.780762 713.032593,762.393677 713.525452,760.630798 
	C713.394470,759.732727 713.263428,758.834656 713.083801,757.098938 
z"/>
<path fill="#E1F8FA" opacity="1.000000" stroke="none" 
	d="
M353.995544,322.005890 
	C360.184052,325.376587 361.627411,324.174072 362.233002,314.814606 
	C366.258148,315.166656 369.611298,310.785065 374.204193,313.240082 
	C374.501953,313.399231 376.291138,310.768250 376.676514,310.299255 
	C380.034363,308.212982 382.431274,306.432617 385.073730,305.163544 
	C387.734192,303.885803 390.681366,303.220795 393.427216,302.101624 
	C398.621185,299.984528 403.714417,297.615631 408.935364,295.570465 
	C415.145294,293.137878 421.417236,290.853180 427.725769,288.689392 
	C429.399750,288.115265 431.302002,288.118500 433.107574,288.036987 
	C435.679382,287.920868 437.600006,287.356750 440.000092,285.643494 
	C443.021942,283.486481 447.784302,283.734283 451.809906,283.025482 
	C456.693359,282.165680 462.032715,283.309021 466.215393,279.330139 
	C466.946869,278.634369 468.777130,279.040466 470.100647,279.030212 
	C473.847504,279.001099 477.594757,279.020020 481.944885,279.020020 
	C479.532562,276.838409 477.817108,275.287048 476.362671,273.340942 
	C477.087250,272.617706 477.550842,272.289246 478.385864,271.982056 
	C480.171082,272.458496 481.584778,272.913666 483.128296,273.723877 
	C487.809998,274.129639 492.361969,274.180328 497.263184,274.133423 
	C498.094513,274.015411 498.576569,273.994965 499.176514,273.959778 
	C499.294403,273.944977 499.714783,273.755005 500.110229,273.589386 
	C501.353912,273.328613 502.202087,273.233429 503.218811,273.347656 
	C504.241608,273.123871 505.095856,272.690643 506.208923,272.168701 
	C506.649689,272.067291 506.831635,272.054657 507.115753,272.247925 
	C507.407410,272.708923 507.654205,272.882660 507.958282,272.975037 
	C508.683624,278.535767 513.315002,278.586609 517.147949,278.877808 
	C520.815857,279.156494 524.570496,278.292114 528.287048,277.930145 
	C528.445129,278.516632 528.603210,279.103119 528.761292,279.689606 
	C526.729431,280.343262 524.697571,280.996918 522.665710,281.650574 
	C522.582764,281.939240 522.499756,282.227936 522.416748,282.516602 
	C524.460815,282.886261 526.917297,284.164948 528.473328,283.458984 
	C533.607849,281.129395 537.548279,284.278748 541.962585,285.434937 
	C547.012695,286.757660 552.357544,287.247070 557.158386,289.148712 
	C562.156006,291.128357 567.576050,291.003235 572.499390,294.486053 
	C576.701294,297.458588 583.279907,297.004181 588.753845,298.292419 
	C590.141113,298.618988 592.506287,300.010681 592.410950,300.570984 
	C591.783875,304.258575 594.244202,304.100525 596.364319,303.959595 
	C599.987976,303.718719 602.612732,304.715820 603.448303,308.818665 
	C605.068237,308.613037 606.478516,308.433990 607.818237,308.263916 
	C608.039917,308.371613 608.293579,308.418152 608.315552,308.516449 
	C610.090942,316.463440 618.745605,316.346161 623.300354,321.218567 
	C627.511597,325.723541 633.410706,328.623657 637.792908,333.004333 
	C641.502136,336.712128 648.577637,336.833923 649.335022,343.833527 
	C649.416382,344.585693 652.138672,345.706573 653.495483,345.536530 
	C656.813782,345.120605 656.501892,346.944458 656.487244,349.099487 
	C656.478271,350.415527 656.579590,352.077637 657.341003,352.996002 
	C661.453125,357.955688 665.724976,362.788269 670.071045,367.546539 
	C672.241089,369.922302 674.064575,373.718506 678.258911,370.498932 
	C681.727478,376.678223 677.936890,386.724762 687.384399,388.623199 
	C689.812561,395.585541 692.095520,402.131317 694.378418,408.677094 
	C694.892578,408.552765 695.406799,408.428467 695.921021,408.304138 
	C695.674622,406.853455 695.094849,405.353821 695.297974,403.969055 
	C695.435730,403.030182 696.672974,402.252625 697.418457,401.402893 
	C698.564575,403.703491 699.870605,405.945801 700.745117,408.345367 
	C700.965698,408.950623 699.999023,410.564911 699.248535,410.850800 
	C695.384705,412.322662 696.849548,414.565216 698.263550,416.715088 
	C701.686890,421.920044 704.873596,427.090607 705.151855,433.688080 
	C705.269043,436.466064 706.886475,439.185883 707.857422,441.919525 
	C708.133484,442.696503 708.775146,443.408264 708.842285,444.185120 
	C709.951355,457.012268 714.879211,469.279999 714.282776,482.394928 
	C714.165710,484.968719 715.814392,487.634552 716.711487,490.236298 
	C717.027222,491.152039 717.951843,492.036469 717.884521,492.878082 
	C717.188904,501.578613 716.432861,510.276428 715.521484,518.956909 
	C714.609741,527.640442 713.557312,536.310303 712.451782,544.971558 
	C712.039490,548.201843 711.291626,551.388672 710.718506,554.599182 
	C710.459106,556.052368 709.695007,557.711487 710.126526,558.936646 
	C711.442993,562.673889 710.263062,564.759033 707.291382,567.303040 
	C705.860291,568.528198 706.733826,572.445557 706.563782,575.143860 
	C707.012817,575.335754 707.461914,575.527710 707.910950,575.719666 
	C706.378052,576.521667 704.845093,577.323730 704.483643,577.512817 
	C703.199524,581.294983 701.973389,584.222900 701.269836,587.271362 
	C700.926147,588.760864 701.555725,590.474976 701.744751,592.087402 
	C701.282166,591.860718 700.819580,591.634094 700.356995,591.407471 
	C698.720154,594.419739 697.076599,597.428406 695.449402,600.445862 
	C694.666199,601.898254 694.287842,603.912354 693.085022,604.737854 
	C686.599976,609.188477 689.916748,616.353149 687.996460,622.025146 
	C687.742981,622.773865 687.730042,623.604004 687.586914,624.515808 
	C678.066101,624.527649 675.184448,631.152649 672.791992,638.513611 
	C672.292419,640.050598 670.222656,641.019409 669.444397,642.540649 
	C668.747925,643.902161 669.157227,645.822815 668.479492,647.202515 
	C667.868713,648.445984 666.599365,649.632385 665.331909,650.202637 
	C664.321777,650.657166 662.876831,650.145508 661.624939,650.062744 
	C662.336853,651.362366 663.031372,652.671875 663.770935,653.955505 
	C664.000549,654.354004 664.352234,654.682190 665.417969,655.980835 
	C662.285339,655.980835 659.993103,655.980835 657.551819,655.980835 
	C657.043884,658.832581 656.616089,661.234619 656.240540,663.343018 
	C661.492493,668.898743 666.590149,674.291199 671.687744,679.683594 
	C671.910645,679.416870 672.133545,679.150146 672.356445,678.883423 
	C672.593140,681.935852 672.829834,684.988342 673.059937,688.489746 
	C673.053284,688.938660 672.945740,689.043396 672.658447,688.873169 
	C667.246155,681.780334 662.121155,674.857727 656.636597,667.449341 
	C639.194275,684.390991 620.185547,698.475403 598.923584,709.615967 
	C599.323730,710.612732 599.451416,711.289551 599.817993,711.792236 
	C616.272583,734.357971 632.201965,757.337646 649.444580,779.285461 
	C658.487610,790.796204 671.867065,793.813293 686.126221,789.939819 
	C698.640808,786.540161 706.489929,777.904236 711.337280,765.997559 
	C712.110718,765.999817 712.552307,766.000183 712.993958,766.000549 
	C712.865112,766.776917 712.920227,767.648865 712.575073,768.312805 
	C711.225769,770.908264 709.365601,773.151489 711.455933,776.484741 
	C712.607300,778.320496 712.578857,780.805725 708.826660,780.499695 
	C707.440430,780.386658 705.727661,781.132568 704.561096,782.013062 
	C699.306946,785.979187 694.316345,790.304932 688.949463,794.103821 
	C687.565552,795.083374 685.116211,794.976746 683.235168,794.740479 
	C680.132629,794.350769 677.094299,793.449158 674.150757,792.790588 
	C671.469849,798.901489 671.383179,798.913696 665.557861,796.273865 
	C664.363647,795.732727 663.064575,795.072815 661.813843,795.072815 
	C658.129272,795.072693 655.282776,794.647827 656.810730,789.760742 
	C656.987732,789.194641 656.228577,787.706665 655.909546,787.708496 
	C650.658997,787.738647 648.336426,783.364136 644.871521,780.690857 
	C644.143188,780.128845 642.701355,780.491699 641.305847,780.412292 
	C641.254028,779.326355 641.293884,778.191162 641.126831,777.087158 
	C640.821228,775.067993 640.889160,771.621155 639.935608,771.294189 
	C633.884094,769.218750 633.171448,763.020203 630.248962,758.854492 
	C625.642334,752.288147 620.473206,746.474792 614.818237,740.903687 
	C613.667358,739.769958 613.888794,737.243286 613.393372,734.973022 
	C611.989502,735.539368 610.866089,735.992554 609.835205,736.408447 
	C606.659485,730.392090 607.599670,721.391724 597.378357,720.570068 
	C597.645874,719.559082 597.743347,718.613770 598.135681,717.812744 
	C599.483704,715.060120 599.055664,713.376160 595.690552,712.971252 
	C592.234314,712.555481 592.356262,711.072449 594.405701,708.746338 
	C595.585144,707.407715 596.285095,705.646606 596.735779,703.404114 
	C593.892395,708.404236 589.721558,706.853760 585.878906,705.876099 
	C584.961853,713.322815 584.118652,714.021240 572.455139,713.882202 
	C567.249023,713.820190 564.290955,716.170410 562.911499,719.126404 
	C556.884888,719.600037 551.390930,719.168762 546.429443,720.592773 
	C534.301331,724.073914 522.559875,729.010376 509.637390,728.960449 
	C505.225067,728.943359 500.812500,728.978271 496.400055,728.980957 
	C487.989410,728.986084 479.572906,729.157410 471.171906,728.873657 
	C468.867340,728.795898 466.665863,726.990173 464.315399,726.616577 
	C461.251282,726.129333 458.085358,726.181885 454.964478,726.201660 
	C453.702911,726.209656 452.444672,726.744690 450.910767,727.104126 
	C450.322205,725.323669 449.831451,723.839172 449.546082,722.975891 
	C441.484650,721.260925 433.922913,719.605408 426.335480,718.077515 
	C424.809814,717.770203 422.886627,717.374146 421.666656,718.012634 
	C418.465668,719.687805 417.148773,719.156250 416.804474,715.474121 
	C416.721466,714.586548 415.233490,713.450562 414.170197,713.099609 
	C409.261566,711.479370 404.082245,710.691101 400.060913,706.856567 
	C398.884460,705.734741 396.600098,705.868408 394.978088,705.100342 
	C391.778503,703.585205 388.396698,702.217102 385.637207,700.081421 
	C383.169281,698.171387 381.518799,697.036377 378.899109,699.737610 
	C378.063110,700.599731 376.077332,700.346863 373.706024,700.764832 
	C374.826813,697.960876 375.406189,696.511353 376.342957,694.167847 
	C373.658386,694.345703 371.683319,694.476624 369.474670,694.622986 
	C369.199646,692.952148 368.937012,691.356628 368.594452,689.275452 
	C365.984222,688.862244 363.324463,688.441223 360.892639,688.056213 
	C360.515411,686.639709 360.090851,685.045471 359.666260,683.451172 
	C357.789001,684.402527 355.911743,685.353882 353.440460,686.606323 
	C353.440460,685.448669 353.155792,684.224365 353.496582,683.210144 
	C354.345673,680.683411 353.550537,679.484131 351.007050,678.925415 
	C350.002869,678.704834 348.859161,677.992615 348.276672,677.157227 
	C343.559387,670.391785 339.157135,663.278503 329.473328,663.587158 
	C329.218201,654.470886 328.004913,652.925476 323.175385,653.094543 
	C320.822754,649.794495 319.079254,647.309021 317.293030,644.854553 
	C315.529846,642.431641 313.790039,639.986023 311.899323,637.664917 
	C311.254913,636.873901 309.862457,636.622986 309.365784,635.793518 
	C307.774261,633.135559 305.699341,630.450745 305.195496,627.536926 
	C304.548431,623.794861 304.450775,621.252319 300.093811,624.587036 
	C299.562317,624.993774 298.380646,624.550964 296.227081,624.430908 
	C298.282654,622.880005 299.361725,622.065796 300.600189,621.131409 
	C300.401154,620.023193 300.514313,618.534546 299.878571,617.510986 
	C297.967743,614.434814 295.471222,611.699768 293.749573,608.534424 
	C291.552521,604.494995 290.445312,599.786377 287.888885,596.033447 
	C280.996887,585.915771 282.451477,573.094727 276.085785,562.617798 
	C275.489166,562.806885 274.516571,563.115112 272.910126,563.624207 
	C273.090424,559.866394 273.413330,556.588257 273.354706,553.317017 
	C273.303619,550.467590 272.790222,547.628723 272.537842,544.780151 
	C272.158875,540.502625 272.301392,536.117126 271.389984,531.960022 
	C268.730377,519.829285 268.547668,507.730286 269.695953,495.386505 
	C270.175232,490.234253 272.132721,484.689880 269.174072,479.428986 
	C268.607483,478.421478 268.594208,476.498840 269.191864,475.536041 
	C274.025452,467.749176 272.050079,458.983856 272.987854,450.654419 
	C273.316925,447.731567 271.895660,444.366577 276.601013,443.169525 
	C277.456268,442.951904 277.556976,438.485596 277.419830,436.013184 
	C277.284454,433.573334 276.405701,431.174744 275.853058,428.758026 
	C276.409393,428.566315 276.965698,428.374573 277.522003,428.182861 
	C278.255219,429.615814 278.988464,431.048767 280.524048,434.049835 
	C281.575989,430.613220 282.197540,428.305939 282.991119,426.059418 
	C284.007477,423.182037 285.127594,420.339478 286.273865,417.510620 
	C286.762726,416.304138 287.878815,415.194611 287.943756,413.999390 
	C288.316803,407.131653 290.107483,400.579407 293.486053,394.741852 
	C295.468689,391.316284 299.009888,388.796783 301.826355,385.847076 
	C302.574249,385.063843 303.633972,384.297455 303.871307,383.352692 
	C305.541687,376.702454 307.034546,370.007660 308.584106,363.327118 
	C309.179840,363.409821 309.775574,363.492554 310.371307,363.575287 
	C310.371307,365.152771 310.371307,366.730255 310.371307,369.097748 
	C312.071442,368.669647 314.069275,368.787872 314.819092,367.877808 
	C319.991272,361.600220 324.869080,355.081146 329.925201,348.706055 
	C331.027649,347.316010 332.636017,346.322845 333.713654,344.918457 
	C335.322144,342.822235 336.666382,340.523285 338.577179,337.620697 
	C346.062195,336.258209 351.380035,331.030579 353.962280,322.382629 
	C354.000000,322.000000 353.995544,322.005890 353.995544,322.005890 
M314.137543,634.332947 
	C331.754913,658.440308 353.253723,678.405518 378.993713,693.494324 
	C422.136230,718.784363 468.627533,729.112122 518.473877,723.191528 
	C570.346191,717.030212 614.826294,695.285645 650.942017,657.751221 
	C699.165344,607.633545 719.121582,547.332520 712.156799,478.198914 
	C708.511719,442.016998 695.906433,408.895782 675.378540,379.079865 
	C648.789978,340.461273 613.533691,312.537262 569.267151,296.308380 
	C527.126282,280.858887 484.094543,277.975647 440.643860,288.742310 
	C380.806274,303.569489 334.536072,337.577545 302.590759,390.477417 
	C277.965424,431.255768 268.241119,475.724670 272.151581,522.995056 
	C275.520203,563.715515 289.706757,600.669678 314.137543,634.332947 
M600.465759,699.859009 
	C599.754761,700.625610 599.043762,701.392151 598.332764,702.158752 
	C598.518372,702.539001 598.703979,702.919312 598.889587,703.299561 
	C601.523499,702.516052 604.157349,701.732483 606.975281,700.894226 
	C605.479736,695.409302 603.105408,697.754761 600.465759,699.859009 
M488.998962,277.015442 
	C488.656952,277.595032 488.314941,278.174622 487.972931,278.754211 
	C489.787170,278.754211 491.601440,278.754211 493.415680,278.754211 
	C493.419128,278.281036 493.422577,277.807831 493.426025,277.334656 
	C492.197906,277.220642 490.969818,277.106628 488.998962,277.015442 
M612.621948,693.796448 
	C612.263306,693.748352 611.904602,693.700256 611.545898,693.652100 
	C611.543457,693.908203 611.541016,694.164307 611.538635,694.420349 
	C611.898071,694.380859 612.257568,694.341309 612.621948,693.796448 
M505.620148,279.792938 
	C505.261688,279.744629 504.903198,279.696320 504.544739,279.647980 
	C504.542419,279.903900 504.540100,280.159851 504.537811,280.415802 
	C504.897125,280.376495 505.256439,280.337219 505.620148,279.792938 
M615.416992,695.697205 
	C615.632629,695.987061 615.848328,696.276855 616.063965,696.566711 
	C616.249329,696.389832 616.434631,696.212952 616.619934,696.036011 
	C616.339355,695.807800 616.058716,695.579590 615.416992,695.697205 
M511.300781,279.421967 
	C511.010590,279.637024 510.720398,279.852051 510.430206,280.067078 
	C510.607300,280.251648 510.784393,280.436218 510.961487,280.620758 
	C511.190063,280.340973 511.418610,280.061188 511.300781,279.421967 
z"/>
<path fill="#4BB7DA" opacity="1.000000" stroke="none" 
	d="
M507.013611,272.041992 
	C506.831635,272.054657 506.649689,272.067291 505.891174,272.120850 
	C504.559814,272.487213 503.805054,272.812744 503.050293,273.138275 
	C502.202087,273.233429 501.353912,273.328613 499.991425,273.505676 
	C499.264343,273.636902 499.124847,273.765869 499.058624,273.974548 
	C498.576569,273.994965 498.094513,274.015411 496.817688,274.076843 
	C491.681427,273.868195 487.339966,273.618500 482.998505,273.368805 
	C481.584778,272.913666 480.171082,272.458496 478.153259,271.731628 
	C447.707733,257.869598 441.456085,222.814896 465.041138,201.144409 
	C467.343231,199.029190 469.889343,197.179626 472.322205,195.206757 
	C472.322205,195.206757 472.685120,195.155441 473.215698,195.041916 
	C477.482269,193.568054 481.218262,192.207718 484.954285,190.847366 
	C485.397095,190.839462 485.839905,190.831558 487.024353,190.821335 
	C488.885132,190.635269 490.004303,190.451508 491.123474,190.267761 
	C492.784088,190.391251 494.444702,190.514725 496.913696,190.732300 
	C506.603973,191.642639 513.868530,196.143326 520.963989,201.029099 
	C520.963989,201.029099 520.997559,201.000336 521.065125,201.341370 
	C532.702820,213.608139 536.945374,227.585297 532.690979,243.810791 
	C530.329102,252.818542 524.713501,259.772308 517.657104,266.026978 
	C513.880737,268.085846 510.447174,270.063904 507.013611,272.041992 
z"/>
<path fill="#D9F6F9" opacity="1.000000" stroke="none" 
	d="
M471.940308,195.111267 
	C469.889343,197.179626 467.343231,199.029190 465.041138,201.144409 
	C441.456085,222.814896 447.707733,257.869598 477.781799,271.710327 
	C477.550842,272.289246 477.087250,272.617706 476.325928,272.967285 
	C462.488922,268.846558 454.781708,259.553192 450.424133,246.220261 
	C445.321655,230.608170 448.730347,217.101303 458.066833,204.454697 
	C460.900238,200.616776 464.058990,197.019058 467.268494,193.065216 
	C468.650574,193.693619 470.104492,194.354706 471.940308,195.111267 
z"/>
<path fill="#DAF7FA" opacity="1.000000" stroke="none" 
	d="
M518.000000,265.946198 
	C524.713501,259.772308 530.329102,252.818542 532.690979,243.810791 
	C536.945374,227.585297 532.702820,213.608139 521.052368,201.359009 
	C527.690063,201.977402 530.256592,207.954742 532.880676,212.560104 
	C536.774963,219.394653 537.996033,227.450592 536.850891,235.486740 
	C536.103699,240.730545 535.166687,245.968094 533.899536,251.106049 
	C533.438904,252.973907 531.788696,254.554260 530.654907,256.248199 
	C529.845703,257.457245 529.000244,258.642365 528.157104,259.828339 
	C527.159485,261.231598 526.146912,262.624237 524.609497,264.759430 
	C524.525391,265.236206 524.256714,266.759521 523.987976,268.282806 
	C522.240845,267.858978 520.493652,267.435181 518.373779,266.744385 
	C518.000732,266.300323 518.000366,266.123260 518.000000,265.946198 
z"/>
<path fill="#E1F8FA" opacity="1.000000" stroke="none" 
	d="
M673.104004,688.883362 
	C675.553101,689.373779 677.951416,689.919495 680.298401,690.453552 
	C681.898804,697.990784 685.825378,703.978271 691.382935,709.041809 
	C692.204651,709.790466 692.465881,711.154175 692.637512,712.618652 
	C691.597473,712.991821 690.906433,712.979675 689.958984,712.809143 
	C689.464661,712.111633 689.226624,711.572571 688.905151,710.817749 
	C688.655701,710.327087 688.421509,710.135620 688.019958,709.886230 
	C687.920837,709.744934 687.876160,709.402588 687.805115,709.090332 
	C687.391663,708.549805 687.049194,708.321472 686.458496,707.882019 
	C681.788696,701.461731 677.367188,695.252563 672.945740,689.043396 
	C672.945740,689.043396 673.053284,688.938660 673.104004,688.883362 
z"/>
<path fill="#E1F8FA" opacity="1.000000" stroke="none" 
	d="
M698.988647,723.031738 
	C700.408569,724.182861 701.804504,725.365112 703.252441,726.479858 
	C710.040039,731.704895 713.142334,739.028198 714.746399,747.095825 
	C715.022888,748.486389 714.102112,750.115051 713.230103,751.820984 
	C712.725708,752.008240 712.326721,751.989624 712.214172,751.604370 
	C712.049500,750.152893 711.997437,749.086731 712.176147,747.868835 
	C712.023560,747.143127 711.640137,746.569092 711.143066,745.690735 
	C710.974182,744.743958 710.919006,744.101379 710.829102,743.158813 
	C710.528564,742.573608 710.262756,742.288452 709.817749,741.708496 
	C708.050903,738.418335 706.463257,735.423035 704.802856,732.108032 
	C704.377502,731.558472 704.024841,731.328552 703.489380,731.000244 
	C703.086731,730.711060 702.958618,730.471252 702.921387,729.863586 
	C702.370117,729.028687 701.819519,728.512756 701.063049,727.754272 
	C700.238098,726.660339 699.619141,725.808777 699.001343,724.636108 
	C698.997864,723.887268 698.993286,723.459473 698.988647,723.031738 
z"/>
<path fill="#DAF7FA" opacity="1.000000" stroke="none" 
	d="
M520.973755,200.659576 
	C513.868530,196.143326 506.603973,191.642639 497.328583,190.665039 
	C499.840363,190.008286 502.739899,189.144058 505.652069,189.099167 
	C510.726410,189.020950 519.172791,195.439926 520.973755,200.659576 
z"/>
<path fill="#D9F6F9" opacity="1.000000" stroke="none" 
	d="
M484.689972,190.590759 
	C481.218262,192.207718 477.482269,193.568054 473.372131,194.946411 
	C473.466675,189.708084 475.312927,188.218185 480.178650,189.235840 
	C481.608368,189.534851 483.010742,189.964401 484.689972,190.590759 
z"/>
<path fill="#D9F6F9" opacity="1.000000" stroke="none" 
	d="
M517.657104,266.026978 
	C518.000366,266.123260 518.000732,266.300323 518.002075,266.743103 
	C518.015747,270.410583 516.289856,271.959534 512.921753,272.008850 
	C511.510162,272.029480 510.104279,272.440216 508.327026,272.824310 
	C507.654205,272.882660 507.407410,272.708923 507.115753,272.247925 
	C510.447174,270.063904 513.880737,268.085846 517.657104,266.026978 
z"/>
<path fill="#DAF7FA" opacity="1.000000" stroke="none" 
	d="
M698.948242,722.672241 
	C698.993286,723.459473 698.997864,723.887268 698.723328,724.457642 
	C695.701233,720.722717 692.958313,716.845154 690.215332,712.967590 
	C690.906433,712.979675 691.597473,712.991821 692.633545,713.005615 
	C694.954956,716.109131 696.931335,719.210999 698.948242,722.672241 
z"/>
<path fill="#DAF7FA" opacity="1.000000" stroke="none" 
	d="
M491.081482,189.902542 
	C490.004303,190.451508 488.885132,190.635269 487.344910,190.728638 
	C486.791290,189.027557 486.658752,187.416855 486.521484,185.806458 
	C490.646942,184.863480 490.646942,184.863480 491.081482,189.902542 
z"/>
<path fill="#DAF7FA" opacity="1.000000" stroke="none" 
	d="
M712.996826,765.584167 
	C712.552307,766.000183 712.110718,765.999817 711.322876,765.625610 
	C711.369263,763.833801 711.761841,762.415955 712.378052,760.998657 
	C712.601746,760.999207 713.049011,761.006653 713.049011,761.006653 
	C713.032593,762.393677 713.016174,763.780762 712.996826,765.584167 
z"/>
<path fill="#E1F8FA" opacity="1.000000" stroke="none" 
	d="
M713.287231,760.818726 
	C713.049011,761.006653 712.601746,760.999207 712.337158,760.622314 
	C712.174438,759.500610 712.276306,758.755798 712.567505,758.000305 
	C712.756775,757.989563 713.132385,757.936584 713.132385,757.936584 
	C713.263428,758.834656 713.394470,759.732727 713.287231,760.818726 
z"/>
<path fill="#DAF7FA" opacity="1.000000" stroke="none" 
	d="
M713.108093,757.517761 
	C713.132385,757.936584 712.756775,757.989563 712.484619,757.575928 
	C712.250549,755.438049 712.288635,753.713806 712.326721,751.989624 
	C712.326721,751.989624 712.725708,752.008240 712.925232,752.033142 
	C713.111084,753.738342 713.097412,755.418640 713.108093,757.517761 
z"/>
<path fill="#E1F8FA" opacity="1.000000" stroke="none" 
	d="
M354.002930,321.997742 
	C353.884644,321.857574 353.763397,321.719666 353.642151,321.581757 
	C353.724701,321.631897 353.807251,321.682068 353.942688,321.869080 
	C353.995544,322.005890 354.000000,322.000000 354.002930,321.997742 
z"/>
<path fill="#4AB7DB" opacity="1.000000" stroke="none" 
	d="
M313.877808,634.089722 
	C289.706757,600.669678 275.520203,563.715515 272.151581,522.995056 
	C268.241119,475.724670 277.965424,431.255768 302.590759,390.477417 
	C334.536072,337.577545 380.806274,303.569489 440.643860,288.742310 
	C484.094543,277.975647 527.126282,280.858887 569.267151,296.308380 
	C613.533691,312.537262 648.789978,340.461273 675.378540,379.079865 
	C695.906433,408.895782 708.511719,442.016998 712.156799,478.198914 
	C719.121582,547.332520 699.165344,607.633545 650.942017,657.751221 
	C614.826294,695.285645 570.346191,717.030212 518.473877,723.191528 
	C468.627533,729.112122 422.136230,718.784363 378.993713,693.494324 
	C353.253723,678.405518 331.754913,658.440308 313.877808,634.089722 
M485.026123,642.196838 
	C483.355347,640.126892 481.684570,638.056946 479.897766,635.320679 
	C474.623932,629.060242 469.317657,622.826721 464.085571,616.531494 
	C459.028198,610.446472 454.129456,604.228210 449.011810,598.195068 
	C442.810394,590.884216 436.432220,583.723511 430.196014,576.441772 
	C429.623932,575.773804 429.141937,574.639771 429.269165,573.823608 
	C430.246429,567.554016 431.132172,561.252014 432.541931,555.073059 
	C434.046967,548.476318 436.310577,542.054199 437.858490,535.465454 
	C440.846313,522.747437 443.501831,509.951691 446.413635,497.215240 
	C448.570282,487.781799 451.012268,478.413300 453.141937,468.974091 
	C454.656982,462.259186 455.738312,455.446716 457.242096,448.728973 
	C458.894043,441.349579 460.869171,434.043030 462.580017,426.676086 
	C463.316101,423.506531 463.533691,420.210907 464.350464,417.066986 
	C466.125763,410.233582 468.296997,403.501312 470.003143,396.652161 
	C471.745453,389.657867 473.405243,382.619629 474.582153,375.514679 
	C475.691956,368.814728 478.892059,362.143616 475.057190,355.183655 
	C471.081299,347.967743 467.548706,340.508850 463.662903,333.241425 
	C461.527191,329.247040 458.782227,326.268555 453.883911,329.860809 
	C453.651581,330.031189 453.218536,329.897430 452.905731,329.992950 
	C443.568329,332.843445 433.920959,334.966553 424.982513,338.759705 
	C414.805176,343.078613 405.016937,348.479736 395.498566,354.147675 
	C381.108124,362.716766 368.335175,373.538208 357.379852,386.137268 
	C350.306915,394.271393 343.791504,403.166260 338.591125,412.584259 
	C331.780548,424.918518 325.388794,437.621094 321.736847,451.419556 
	C320.232849,457.102295 318.197968,462.676361 317.130524,468.434418 
	C315.927521,474.923309 315.756531,481.596497 314.759247,488.131927 
	C312.319916,504.117737 314.121033,520.103699 316.816956,535.650513 
	C319.161865,549.173218 323.979553,562.522095 329.490570,575.169556 
	C335.079926,587.996887 342.200623,600.303955 349.916412,612.004211 
	C354.761414,619.351196 361.470795,625.703186 368.203247,631.504028 
	C374.707733,637.108398 378.953217,645.411072 387.766632,648.316162 
	C388.193817,648.457031 388.447784,649.055359 388.859009,649.323059 
	C393.477661,652.329895 397.951050,655.607056 402.774445,658.242432 
	C412.713318,663.672668 422.507416,669.435791 433.778351,672.002258 
	C437.920685,672.945496 441.714417,675.568298 445.865234,676.297607 
	C458.359344,678.492798 470.900787,680.737366 483.521545,681.784363 
	C492.391022,682.520203 501.417938,681.158752 510.378571,681.040710 
	C525.006775,680.847900 538.644897,676.204102 552.266724,671.737549 
	C558.934570,669.551270 565.139587,665.979919 571.631470,663.217407 
	C574.281250,662.089783 577.408997,661.908264 579.839355,660.479797 
	C584.509277,657.735291 588.588684,653.936829 593.360291,651.425354 
	C602.093689,646.828796 608.378784,639.405457 615.657471,633.148621 
	C619.139709,630.155273 622.131775,626.533813 625.054077,622.958435 
	C631.792236,614.714478 639.112610,606.805054 644.764221,597.855286 
	C650.112427,589.385925 653.625122,579.758728 657.962769,570.649292 
	C659.237244,567.972839 661.095703,565.454041 661.787231,562.641846 
	C664.492676,551.639709 667.096558,540.599304 669.255493,529.479370 
	C672.323914,513.674866 671.779236,497.656281 669.579407,481.885986 
	C667.832764,469.364319 664.805420,456.923431 661.178711,444.795959 
	C658.721069,436.577820 654.180786,428.990814 650.697510,421.066284 
	C649.584961,418.535309 648.849365,415.835602 647.997742,413.194885 
	C647.755554,412.443726 647.974915,411.414917 647.536804,410.875732 
	C643.221008,405.564697 638.917358,400.236176 634.386597,395.110321 
	C631.818115,392.204498 628.833496,389.666504 625.929321,386.270691 
	C619.349487,376.735352 611.005676,368.993073 601.588135,362.346527 
	C595.298645,357.907623 589.483704,352.417358 582.598328,349.281616 
	C568.675598,342.940826 555.639587,334.218475 539.977905,332.063568 
	C536.941895,331.645813 534.051575,330.262543 531.039673,329.556458 
	C524.875549,328.111481 522.604919,329.234100 519.916931,334.848145 
	C517.861206,339.141510 516.181274,343.650330 513.770935,347.730591 
	C509.374237,355.173370 506.855804,362.352112 509.471130,371.447327 
	C513.992310,387.170715 517.315857,403.241669 521.025330,419.193909 
	C522.737732,426.557831 524.087585,434.005554 525.762451,441.378784 
	C527.404358,448.606781 529.296875,455.777435 530.994629,462.993225 
	C533.180115,472.281830 535.159668,481.620453 537.455017,490.881226 
	C539.469177,499.007446 542.101196,506.988647 543.908081,515.156067 
	C546.118286,525.147278 547.694397,535.277222 549.655212,545.325623 
	C551.204590,553.265442 553.115601,561.139893 554.455444,569.112427 
	C554.911316,571.825012 555.159302,575.559143 553.705444,577.430420 
	C548.253174,584.448120 541.880188,590.741882 536.216675,597.607544 
	C533.380737,601.045471 531.330811,605.131714 528.178101,608.981628 
	C526.636963,609.477173 524.058716,609.593567 523.717163,610.527710 
	C520.721680,618.721191 514.101440,623.942017 508.542084,630.074341 
	C504.716125,634.294617 501.576080,639.140015 497.716339,643.325073 
	C495.616364,645.601990 492.653839,647.083313 490.018341,648.210999 
	C488.370361,646.449951 486.722412,644.688904 485.026123,642.196838 
z"/>
<path fill="#4BB7DA" opacity="1.000000" stroke="none" 
	d="
M712.214172,751.604370 
	C712.288635,753.713806 712.250549,755.438049 712.295288,757.586670 
	C712.276306,758.755798 712.174438,759.500610 712.113525,760.621704 
	C711.761841,762.415955 711.369263,763.833801 710.991089,765.623657 
	C706.489929,777.904236 698.640808,786.540161 686.126221,789.939819 
	C671.867065,793.813293 658.487610,790.796204 649.444580,779.285461 
	C632.201965,757.337646 616.272583,734.357971 599.817993,711.792236 
	C599.451416,711.289551 599.323730,710.612732 598.923584,709.615967 
	C620.185547,698.475403 639.194275,684.390991 656.636597,667.449341 
	C662.121155,674.857727 667.246155,681.780334 672.658447,688.873169 
	C677.367188,695.252563 681.788696,701.461731 686.588135,708.152222 
	C687.269409,708.889893 687.572754,709.146240 687.876160,709.402588 
	C687.876160,709.402588 687.920837,709.744934 688.081970,710.113647 
	C688.415527,710.768921 688.664001,710.952637 688.988647,711.033508 
	C689.226624,711.572571 689.464661,712.111633 689.958984,712.809143 
	C692.958313,716.845154 695.701233,720.722717 698.722168,724.778809 
	C699.619141,725.808777 700.238098,726.660339 701.098999,728.036621 
	C701.867920,729.101746 702.395081,729.642151 702.922180,730.182495 
	C702.958618,730.471252 703.086731,730.711060 703.632202,731.269287 
	C704.263794,731.900330 704.569702,732.164062 704.875549,732.427734 
	C706.463257,735.423035 708.050903,738.418335 709.871338,741.996277 
	C710.357361,742.872253 710.610596,743.165527 710.863892,743.458862 
	C710.919006,744.101379 710.974182,744.743958 711.101318,745.973389 
	C711.430725,747.046997 711.688049,747.533752 711.945374,748.020508 
	C711.997437,749.086731 712.049500,750.152893 712.214172,751.604370 
z"/>
<path fill="#FFFFFF" opacity="1.000000" stroke="none" 
	d="
M600.669739,699.570618 
	C603.105408,697.754761 605.479736,695.409302 606.975281,700.894226 
	C604.157349,701.732483 601.523499,702.516052 598.889587,703.299561 
	C598.703979,702.919312 598.518372,702.539001 598.332764,702.158752 
	C599.043762,701.392151 599.754761,700.625610 600.669739,699.570618 
z"/>
<path fill="#D9F6F9" opacity="1.000000" stroke="none" 
	d="
M483.128296,273.723877 
	C487.339966,273.618500 491.681427,273.868195 496.468384,274.174438 
	C492.361969,274.180328 487.809998,274.129639 483.128296,273.723877 
z"/>
<path fill="#FFFFFF" opacity="1.000000" stroke="none" 
	d="
M489.370331,277.004028 
	C490.969818,277.106628 492.197906,277.220642 493.426025,277.334656 
	C493.422577,277.807831 493.419128,278.281036 493.415680,278.754211 
	C491.601440,278.754211 489.787170,278.754211 487.972931,278.754211 
	C488.314941,278.174622 488.656952,277.595032 489.370331,277.004028 
z"/>
<path fill="#D9F6F9" opacity="1.000000" stroke="none" 
	d="
M503.218811,273.347656 
	C503.805054,272.812744 504.559814,272.487213 505.632324,272.209595 
	C505.095856,272.690643 504.241608,273.123871 503.218811,273.347656 
z"/>
<path fill="#FFFFFF" opacity="1.000000" stroke="none" 
	d="
M612.619507,694.049072 
	C612.257568,694.341309 611.898071,694.380859 611.538574,694.420410 
	C611.541016,694.164307 611.543457,693.908203 611.545898,693.652100 
	C611.904602,693.700256 612.263306,693.748352 612.619507,694.049072 
z"/>
<path fill="#FFFFFF" opacity="1.000000" stroke="none" 
	d="
M505.617950,280.045441 
	C505.256439,280.337219 504.897125,280.376495 504.537811,280.415771 
	C504.540100,280.159851 504.542419,279.903900 504.544739,279.647980 
	C504.903198,279.696320 505.261688,279.744629 505.617950,280.045441 
z"/>
<path fill="#FFFFFF" opacity="1.000000" stroke="none" 
	d="
M615.597534,695.524292 
	C616.058716,695.579590 616.339355,695.807800 616.619934,696.036011 
	C616.434631,696.212952 616.249329,696.389832 616.063965,696.566711 
	C615.848328,696.276855 615.632629,695.987061 615.597534,695.524292 
z"/>
<path fill="#FFFFFF" opacity="1.000000" stroke="none" 
	d="
M511.473999,279.601685 
	C511.418610,280.061188 511.190063,280.340973 510.961487,280.620789 
	C510.784393,280.436218 510.607300,280.251648 510.430206,280.067078 
	C510.720398,279.852051 511.010590,279.637024 511.473999,279.601685 
z"/>
<path fill="#D9F6F9" opacity="1.000000" stroke="none" 
	d="
M499.176514,273.959778 
	C499.124847,273.765869 499.264343,273.636902 499.595947,273.671326 
	C499.714783,273.755005 499.294403,273.944977 499.176514,273.959778 
z"/>
<path fill="#DAF7FA" opacity="1.000000" stroke="none" 
	d="
M687.805115,709.090332 
	C687.572754,709.146240 687.269409,708.889893 686.836426,708.363342 
	C687.049194,708.321472 687.391663,708.549805 687.805115,709.090332 
z"/>
<path fill="#DAF7FA" opacity="1.000000" stroke="none" 
	d="
M688.905151,710.817749 
	C688.664001,710.952637 688.415527,710.768921 688.181091,710.255005 
	C688.421509,710.135620 688.655701,710.327087 688.905151,710.817749 
z"/>
<path fill="#DAF7FA" opacity="1.000000" stroke="none" 
	d="
M712.176147,747.868835 
	C711.688049,747.533752 711.430725,747.046997 711.215088,746.277588 
	C711.640137,746.569092 712.023560,747.143127 712.176147,747.868835 
z"/>
<path fill="#DAF7FA" opacity="1.000000" stroke="none" 
	d="
M702.921387,729.863586 
	C702.395081,729.642151 701.867920,729.101746 701.304932,728.279053 
	C701.819519,728.512756 702.370117,729.028687 702.921387,729.863586 
z"/>
<path fill="#DAF7FA" opacity="1.000000" stroke="none" 
	d="
M704.802856,732.108032 
	C704.569702,732.164062 704.263794,731.900330 703.815063,731.367676 
	C704.024841,731.328552 704.377502,731.558472 704.802856,732.108032 
z"/>
<path fill="#DAF7FA" opacity="1.000000" stroke="none" 
	d="
M710.829102,743.158813 
	C710.610596,743.165527 710.357361,742.872253 710.050476,742.291138 
	C710.262756,742.288452 710.528564,742.573608 710.829102,743.158813 
z"/>
<path fill="#65B6CA" opacity="1.000000" stroke="none" 
	d="
M626.036316,386.962891 
	C628.833496,389.666504 631.818115,392.204498 634.386597,395.110321 
	C638.917358,400.236176 643.221008,405.564697 647.536804,410.875732 
	C647.974915,411.414917 647.755554,412.443726 647.997742,413.194885 
	C648.849365,415.835602 649.584961,418.535309 650.697510,421.066284 
	C654.180786,428.990814 658.721069,436.577820 661.178711,444.795959 
	C664.805420,456.923431 667.832764,469.364319 669.579407,481.885986 
	C671.779236,497.656281 672.323914,513.674866 669.255493,529.479370 
	C667.096558,540.599304 664.492676,551.639709 661.787231,562.641846 
	C661.095703,565.454041 659.237244,567.972839 657.962769,570.649292 
	C653.625122,579.758728 650.112427,589.385925 644.764221,597.855286 
	C639.112610,606.805054 631.792236,614.714478 625.054077,622.958435 
	C622.131775,626.533813 619.139709,630.155273 615.657471,633.148621 
	C608.378784,639.405457 602.093689,646.828796 593.360291,651.425354 
	C588.588684,653.936829 584.509277,657.735291 579.839355,660.479797 
	C577.408997,661.908264 574.281250,662.089783 571.631470,663.217407 
	C565.139587,665.979919 558.934570,669.551270 552.266724,671.737549 
	C538.644897,676.204102 525.006775,680.847900 510.378571,681.040710 
	C501.417938,681.158752 492.391022,682.520203 483.521545,681.784363 
	C470.900787,680.737366 458.359344,678.492798 445.865234,676.297607 
	C441.714417,675.568298 437.920685,672.945496 433.778351,672.002258 
	C422.507416,669.435791 412.713318,663.672668 402.774445,658.242432 
	C397.951050,655.607056 393.477661,652.329895 388.859009,649.323059 
	C388.447784,649.055359 388.193817,648.457031 387.766632,648.316162 
	C378.953217,645.411072 374.707733,637.108398 368.203247,631.504028 
	C361.470795,625.703186 354.761414,619.351196 349.916412,612.004211 
	C342.200623,600.303955 335.079926,587.996887 329.490570,575.169556 
	C323.979553,562.522095 319.161865,549.173218 316.816956,535.650513 
	C314.121033,520.103699 312.319916,504.117737 314.759247,488.131927 
	C315.756531,481.596497 315.927521,474.923309 317.130524,468.434418 
	C318.197968,462.676361 320.232849,457.102295 321.736847,451.419556 
	C325.388794,437.621094 331.780548,424.918518 338.591125,412.584259 
	C343.791504,403.166260 350.306915,394.271393 357.379852,386.137268 
	C368.335175,373.538208 381.108124,362.716766 395.498566,354.147675 
	C405.016937,348.479736 414.805176,343.078613 424.982513,338.759705 
	C433.920959,334.966553 443.568329,332.843445 452.905731,329.992950 
	C453.218536,329.897430 453.651581,330.031189 453.883911,329.860809 
	C458.782227,326.268555 461.527191,329.247040 463.662903,333.241425 
	C467.548706,340.508850 471.081299,347.967743 475.057190,355.183655 
	C478.892059,362.143616 475.691956,368.814728 474.582153,375.514679 
	C473.405243,382.619629 471.745453,389.657867 470.003143,396.652161 
	C468.296997,403.501312 466.125763,410.233582 464.350464,417.066986 
	C463.533691,420.210907 463.316101,423.506531 462.580017,426.676086 
	C460.869171,434.043030 458.894043,441.349579 457.242096,448.728973 
	C455.738312,455.446716 454.656982,462.259186 453.141937,468.974091 
	C451.012268,478.413300 448.570282,487.781799 446.413635,497.215240 
	C443.501831,509.951691 440.846313,522.747437 437.858490,535.465454 
	C436.310577,542.054199 434.046967,548.476318 432.541931,555.073059 
	C431.132172,561.252014 430.246429,567.554016 429.269165,573.823608 
	C429.141937,574.639771 429.623932,575.773804 430.196014,576.441772 
	C436.432220,583.723511 442.810394,590.884216 449.011810,598.195068 
	C454.129456,604.228210 459.028198,610.446472 464.085571,616.531494 
	C469.317657,622.826721 474.623932,629.060242 479.805054,635.802673 
	C479.712311,636.284668 479.410797,636.582336 479.178528,636.409424 
	C478.304047,635.806213 477.661804,635.375854 476.808044,634.692932 
	C460.430359,615.429016 444.212555,596.460815 428.200043,577.320923 
	C426.973572,575.854919 426.477356,573.031128 426.868652,571.085144 
	C428.770416,561.626404 431.099152,552.253784 433.260895,542.847046 
	C446.901886,483.488342 460.579041,424.137787 474.041016,364.738495 
	C474.628693,362.145355 473.791382,358.847961 472.647156,356.317566 
	C469.637695,349.662445 465.679047,343.420349 462.897827,336.683716 
	C460.865082,331.760040 458.174652,330.916443 453.332306,332.029785 
	C419.308411,339.852478 390.080811,356.199341 365.841522,381.251434 
	C333.303741,414.880371 317.264130,455.550842 316.189789,502.026733 
	C315.629913,526.246338 320.465424,549.667480 330.201294,572.000427 
	C352.281799,622.650696 389.939819,656.309509 442.420410,672.537781 
	C480.325256,684.258789 518.368103,682.430115 555.587524,668.150879 
	C586.317261,656.361450 611.990662,637.501404 631.908325,611.405823 
	C658.553345,576.496277 670.959595,536.970947 668.386536,492.859680 
	C666.774536,465.223907 659.111206,439.451294 645.115173,415.703674 
	C639.314148,405.860748 632.108643,396.845673 625.665527,387.331360 
	C625.789124,387.208588 626.036316,386.962891 626.036316,386.962891 
z"/>
<path fill="#65B6CA" opacity="1.000000" stroke="none" 
	d="
M528.925415,608.924744 
	C531.330811,605.131714 533.380737,601.045471 536.216675,597.607544 
	C541.880188,590.741882 548.253174,584.448120 553.705444,577.430420 
	C555.159302,575.559143 554.911316,571.825012 554.455444,569.112427 
	C553.115601,561.139893 551.204590,553.265442 549.655212,545.325623 
	C547.694397,535.277222 546.118286,525.147278 543.908081,515.156067 
	C542.101196,506.988647 539.469177,499.007446 537.455017,490.881226 
	C535.159668,481.620453 533.180115,472.281830 530.994629,462.993225 
	C529.296875,455.777435 527.404358,448.606781 525.762451,441.378784 
	C524.087585,434.005554 522.737732,426.557831 521.025330,419.193909 
	C517.315857,403.241669 513.992310,387.170715 509.471130,371.447327 
	C506.855804,362.352112 509.374237,355.173370 513.770935,347.730591 
	C516.181274,343.650330 517.861206,339.141510 519.916931,334.848145 
	C522.604919,329.234100 524.875549,328.111481 531.039673,329.556458 
	C534.051575,330.262543 536.941895,331.645813 539.977905,332.063568 
	C555.639587,334.218475 568.675598,342.940826 582.598328,349.281616 
	C589.483704,352.417358 595.298645,357.907623 601.588135,362.346527 
	C611.005676,368.993073 619.349487,376.735352 625.982788,386.616791 
	C626.036316,386.962891 625.789124,387.208588 625.393066,387.152405 
	C621.118652,383.219696 617.329407,379.248993 613.347412,375.482086 
	C589.452698,352.878143 561.271484,338.465668 529.183228,331.505219 
	C526.813171,330.991119 525.187317,330.891022 523.909912,333.474518 
	C519.793091,341.800568 515.380371,349.980469 511.276489,358.312622 
	C510.537506,359.812988 510.206604,361.881622 510.561554,363.495544 
	C513.453003,376.643250 516.550049,389.745758 519.589050,402.860962 
	C526.569092,432.984650 533.584473,463.100159 540.522522,493.233521 
	C545.745056,515.916077 550.659668,538.671814 556.118713,561.296692 
	C559.265564,574.339172 559.627625,574.249329 550.812256,584.565430 
	C550.164856,585.323059 549.583557,586.137207 548.672485,587.068726 
	C547.222412,588.780823 546.071411,590.349365 544.925293,591.932983 
	C544.930176,591.948059 544.937195,591.931091 544.697510,592.022217 
	C544.274536,592.394348 544.091309,592.675354 543.694824,593.059326 
	C543.213379,593.357483 543.043030,593.616882 542.670044,594.092529 
	C539.219910,598.137329 536.070251,602.030029 532.960327,605.961426 
	C533.000000,606.000000 532.922546,605.922363 532.635132,606.045349 
	C531.286316,607.156738 530.224976,608.145203 529.103455,609.082153 
	C529.043274,609.030640 528.925415,608.924744 528.925415,608.924744 
z"/>
<path fill="#65B6CA" opacity="1.000000" stroke="none" 
	d="
M490.080383,648.923462 
	C492.653839,647.083313 495.616364,645.601990 497.716339,643.325073 
	C501.576080,639.140015 504.716125,634.294617 508.542084,630.074341 
	C514.101440,623.942017 520.721680,618.721191 523.717163,610.527710 
	C524.058716,609.593567 526.636963,609.477173 528.551758,608.953186 
	C528.925415,608.924744 529.043274,609.030640 529.080872,609.316650 
	C529.118469,609.602722 529.166992,610.071960 528.930298,610.245667 
	C528.412842,610.925659 528.132019,611.431946 527.556030,612.080505 
	C525.464233,614.442566 523.667542,616.662354 521.876221,618.927002 
	C521.881470,618.971924 521.913147,618.887207 521.665039,618.971313 
	C521.254578,619.355530 521.092285,619.655579 520.967957,619.967102 
	C521.005981,619.978516 520.937439,619.936157 520.638306,620.086060 
	C516.255981,625.181458 512.172791,630.126892 507.852753,635.194946 
	C507.347443,635.766968 507.078949,636.216431 506.507019,636.798523 
	C504.807983,638.623535 503.412415,640.315857 502.007812,642.004089 
	C501.998779,642.000000 502.009003,642.017517 501.714417,642.153931 
	C500.262115,643.843567 499.104401,645.396790 497.965515,646.977539 
	C497.984314,647.005005 497.962494,646.944153 497.721832,647.032715 
	C497.320404,647.413391 497.159637,647.705444 496.999451,647.998718 
	C497.000000,648.000000 496.997559,647.999207 496.699707,648.125122 
	C495.533173,649.426941 494.664459,650.602844 493.858032,651.896606 
	C493.920319,652.014404 493.777802,651.787476 493.453552,651.825806 
	C492.046844,650.948792 490.964417,650.033447 489.931396,649.069336 
	C489.980774,649.020447 490.080353,648.923462 490.080383,648.923462 
z"/>
<path fill="#65B6CA" opacity="1.000000" stroke="none" 
	d="
M479.863037,636.135864 
	C481.684570,638.056946 483.355347,640.126892 484.983337,642.620667 
	C484.940552,643.044495 484.804718,643.158936 484.563660,642.986206 
	C483.558563,642.204529 482.794556,641.595581 482.018463,640.992432 
	C482.006378,640.998230 482.014679,640.973328 481.939392,640.733398 
	C481.593048,640.308899 481.321991,640.124329 481.048889,639.965637 
	C481.046875,639.991577 481.067596,639.936707 481.026489,639.621887 
	C480.460480,638.398804 479.935638,637.490601 479.410797,636.582336 
	C479.410797,636.582336 479.712311,636.284668 479.863037,636.135864 
z"/>
<path fill="#65B6CA" opacity="1.000000" stroke="none" 
	d="
M485.007507,642.986206 
	C486.722412,644.688904 488.370361,646.449951 490.049347,648.567261 
	C490.080353,648.923462 489.980774,649.020447 489.686035,648.941528 
	C488.935425,648.561218 488.479584,648.259888 487.913818,647.747437 
	C487.610413,647.275085 487.365692,647.077271 486.964844,646.639282 
	C486.174866,645.276855 485.489807,644.217896 484.804718,643.158936 
	C484.804718,643.158936 484.940552,643.044495 485.007507,642.986206 
z"/>
<path fill="#FDFEFE" opacity="1.000000" stroke="none" 
	d="
M487.069763,646.942749 
	C487.365692,647.077271 487.610413,647.275085 487.902161,648.147644 
	C488.822754,651.454285 489.645081,654.149597 490.467377,656.844910 
	C491.091156,656.868591 491.714905,656.892212 492.338684,656.915894 
	C492.818390,655.206421 493.298096,653.496948 493.777802,651.787476 
	C493.777802,651.787476 493.920319,652.014404 494.255615,651.961853 
	C495.393158,650.605957 496.195374,649.302551 496.997559,647.999207 
	C496.997559,647.999207 497.000000,648.000000 497.230377,647.896851 
	C497.627991,647.510559 497.795227,647.227356 497.962494,646.944153 
	C497.962494,646.944153 497.984314,647.005005 498.354492,646.994019 
	C502.202698,646.904236 502.006256,644.395020 502.009003,642.017517 
	C502.009003,642.017517 501.998779,642.000000 502.379761,641.998901 
	C504.110657,640.220459 505.460541,638.443176 506.810455,636.665833 
	C507.078949,636.216431 507.347443,635.766968 508.167358,635.326538 
	C512.924927,637.557434 513.381165,632.778442 514.673401,631.317749 
	C517.472839,628.153259 518.930847,623.802063 520.937439,619.936157 
	C520.937439,619.936157 521.005981,619.978516 521.210083,619.872559 
	C521.580566,619.473450 521.746887,619.180359 521.913147,618.887207 
	C521.913147,618.887207 521.881470,618.971924 522.243774,618.939880 
	C525.411804,617.380371 529.193787,616.587524 527.851196,611.938171 
	C528.132019,611.431946 528.412842,610.925659 529.295410,610.220459 
	C530.905701,608.655151 531.914124,607.288757 532.922546,605.922363 
	C532.922546,605.922363 533.000000,606.000000 533.341431,605.983765 
	C539.380676,603.967773 542.403320,599.902222 542.970459,593.940491 
	C543.043030,593.616882 543.213379,593.357483 543.943237,592.978455 
	C544.582458,592.506836 544.759827,592.218933 544.937195,591.931091 
	C544.937195,591.931091 544.930176,591.948059 545.285583,591.955811 
	C549.095459,591.833740 549.894531,589.948547 548.971558,586.925110 
	C549.583557,586.137207 550.164856,585.323059 550.812256,584.565430 
	C559.627625,574.249329 559.265564,574.339172 556.118713,561.296692 
	C550.659668,538.671814 545.745056,515.916077 540.522522,493.233521 
	C533.584473,463.100159 526.569092,432.984650 519.589050,402.860962 
	C516.550049,389.745758 513.453003,376.643250 510.561554,363.495544 
	C510.206604,361.881622 510.537506,359.812988 511.276489,358.312622 
	C515.380371,349.980469 519.793091,341.800568 523.909912,333.474518 
	C525.187317,330.891022 526.813171,330.991119 529.183228,331.505219 
	C561.271484,338.465668 589.452698,352.878143 613.347412,375.482086 
	C617.329407,379.248993 621.118652,383.219696 625.269409,387.275177 
	C632.108643,396.845673 639.314148,405.860748 645.115173,415.703674 
	C659.111206,439.451294 666.774536,465.223907 668.386536,492.859680 
	C670.959595,536.970947 658.553345,576.496277 631.908325,611.405823 
	C611.990662,637.501404 586.317261,656.361450 555.587524,668.150879 
	C518.368103,682.430115 480.325256,684.258789 442.420410,672.537781 
	C389.939819,656.309509 352.281799,622.650696 330.201294,572.000427 
	C320.465424,549.667480 315.629913,526.246338 316.189789,502.026733 
	C317.264130,455.550842 333.303741,414.880371 365.841522,381.251434 
	C390.080811,356.199341 419.308411,339.852478 453.332306,332.029785 
	C458.174652,330.916443 460.865082,331.760040 462.897827,336.683716 
	C465.679047,343.420349 469.637695,349.662445 472.647156,356.317566 
	C473.791382,358.847961 474.628693,362.145355 474.041016,364.738495 
	C460.579041,424.137787 446.901886,483.488342 433.260895,542.847046 
	C431.099152,552.253784 428.770416,561.626404 426.868652,571.085144 
	C426.477356,573.031128 426.973572,575.854919 428.200043,577.320923 
	C444.212555,596.460815 460.430359,615.429016 476.776733,635.009277 
	C476.316742,638.927185 478.845947,639.286926 481.067596,639.936707 
	C481.067596,639.936707 481.046875,639.991577 481.123444,640.207031 
	C481.471558,640.606079 481.743134,640.789673 482.014679,640.973328 
	C482.014679,640.973328 482.006378,640.998230 482.006104,641.365845 
	C483.610687,643.550659 481.975586,648.517395 487.069763,646.942749 
z"/>
<path fill="#DBF6F9" opacity="1.000000" stroke="none" 
	d="
M481.026489,639.621887 
	C478.845947,639.286926 476.316742,638.927185 476.988251,635.261841 
	C477.661804,635.375854 478.304047,635.806213 479.178528,636.409424 
	C479.935638,637.490601 480.460480,638.398804 481.026489,639.621887 
z"/>
<path fill="#DBF6F9" opacity="1.000000" stroke="none" 
	d="
M542.670044,594.092529 
	C542.403320,599.902222 539.380676,603.967773 533.301758,605.945129 
	C536.070251,602.030029 539.219910,598.137329 542.670044,594.092529 
z"/>
<path fill="#DBF6F9" opacity="1.000000" stroke="none" 
	d="
M548.672485,587.068726 
	C549.894531,589.948547 549.095459,591.833740 545.280640,591.940674 
	C546.071411,590.349365 547.222412,588.780823 548.672485,587.068726 
z"/>
<path fill="#DBF6F9" opacity="1.000000" stroke="none" 
	d="
M532.635132,606.045349 
	C531.914124,607.288757 530.905701,608.655151 529.532104,610.046753 
	C529.166992,610.071960 529.118469,609.602722 529.141052,609.368164 
	C530.224976,608.145203 531.286316,607.156738 532.635132,606.045349 
z"/>
<path fill="#DBF6F9" opacity="1.000000" stroke="none" 
	d="
M544.697510,592.022217 
	C544.759827,592.218933 544.582458,592.506836 544.156616,592.875549 
	C544.091309,592.675354 544.274536,592.394348 544.697510,592.022217 
z"/>
<path fill="#DBF6F9" opacity="1.000000" stroke="none" 
	d="
M520.638306,620.086060 
	C518.930847,623.802063 517.472839,628.153259 514.673401,631.317749 
	C513.381165,632.778442 512.924927,637.557434 508.404175,635.203857 
	C512.172791,630.126892 516.255981,625.181458 520.638306,620.086060 
z"/>
<path fill="#DBF6F9" opacity="1.000000" stroke="none" 
	d="
M493.453552,651.825806 
	C493.298096,653.496948 492.818390,655.206421 492.338684,656.915894 
	C491.714905,656.892212 491.091156,656.868591 490.467377,656.844910 
	C489.645081,654.149597 488.822754,651.454285 488.012085,648.358765 
	C488.479584,648.259888 488.935425,648.561218 489.636658,648.990356 
	C490.964417,650.033447 492.046844,650.948792 493.453552,651.825806 
z"/>
<path fill="#DBF6F9" opacity="1.000000" stroke="none" 
	d="
M527.556030,612.080505 
	C529.193787,616.587524 525.411804,617.380371 522.238525,618.894958 
	C523.667542,616.662354 525.464233,614.442566 527.556030,612.080505 
z"/>
<path fill="#DBF6F9" opacity="1.000000" stroke="none" 
	d="
M506.507019,636.798523 
	C505.460541,638.443176 504.110657,640.220459 502.388794,642.002991 
	C503.412415,640.315857 504.807983,638.623535 506.507019,636.798523 
z"/>
<path fill="#DBF6F9" opacity="1.000000" stroke="none" 
	d="
M501.714417,642.153931 
	C502.006256,644.395020 502.202698,646.904236 498.335693,646.966553 
	C499.104401,645.396790 500.262115,643.843567 501.714417,642.153931 
z"/>
<path fill="#DBF6F9" opacity="1.000000" stroke="none" 
	d="
M496.699707,648.125122 
	C496.195374,649.302551 495.393158,650.605957 494.193359,651.843994 
	C494.664459,650.602844 495.533173,649.426941 496.699707,648.125122 
z"/>
<path fill="#DBF6F9" opacity="1.000000" stroke="none" 
	d="
M497.721832,647.032715 
	C497.795227,647.227356 497.627991,647.510559 497.229828,647.895630 
	C497.159637,647.705444 497.320404,647.413391 497.721832,647.032715 
z"/>
<path fill="#DBF6F9" opacity="1.000000" stroke="none" 
	d="
M521.665039,618.971313 
	C521.746887,619.180359 521.580566,619.473450 521.172119,619.861084 
	C521.092285,619.655579 521.254578,619.355530 521.665039,618.971313 
z"/>
<path fill="#DBF6F9" opacity="1.000000" stroke="none" 
	d="
M486.964844,646.639282 
	C481.975586,648.517395 483.610687,643.550659 482.018188,641.360046 
	C482.794556,641.595581 483.558563,642.204529 484.563660,642.986206 
	C485.489807,644.217896 486.174866,645.276855 486.964844,646.639282 
z"/>
<path fill="#DBF6F9" opacity="1.000000" stroke="none" 
	d="
M481.939392,640.733398 
	C481.743134,640.789673 481.471558,640.606079 481.125488,640.181030 
	C481.321991,640.124329 481.593048,640.308899 481.939392,640.733398 
z"/>
</svg>